<!-- Generated by IcoMoon.io -->
<svg version="1.1" xmlns="http://www.w3.org/2000/svg" width="43" height="32" viewBox="0 0 43 32">
<title>filter-list-button</title>
<path fill="#191919" stroke="#707070" stroke-linejoin="miter" stroke-linecap="butt" stroke-miterlimit="4" stroke-width="1.3333" d="M5.333 0h32c2.946 0 5.333 2.388 5.333 5.333v21.333c0 2.946-2.388 5.333-5.333 5.333h-32c-2.946 0-5.333-2.388-5.333-5.333v-21.333c0-2.946 2.388-5.333 5.333-5.333z"></path>
<path fill="none" stroke="#707070" stroke-linejoin="miter" stroke-linecap="butt" stroke-miterlimit="4" stroke-width="1.3333" d="M5.333 0.667h32c2.577 0 4.667 2.089 4.667 4.667v21.333c0 2.577-2.089 4.667-4.667 4.667h-32c-2.577 0-4.667-2.089-4.667-4.667v-21.333c0-2.577 2.089-4.667 4.667-4.667z"></path>
<path fill="#919191" d="M15.824 6.667h15.084z"></path>
<path fill="#919191" d="M31.283 7.333h-15.084c-0.368 0-0.667-0.298-0.667-0.667s0.298-0.667 0.667-0.667v0h15.084c0.368 0 0.667 0.298 0.667 0.667s-0.298 0.667-0.667 0.667v0z"></path>
<path fill="#919191" d="M13.283 6.667c0 0.736-0.597 1.333-1.333 1.333s-1.333-0.597-1.333-1.333c0-0.736 0.597-1.333 1.333-1.333s1.333 0.597 1.333 1.333z"></path>
<path fill="#919191" d="M15.824 12.889h15.308z"></path>
<path fill="#919191" d="M31.283 13.536h-15.433c-0.368 0-0.667-0.298-0.667-0.667s0.298-0.667 0.667-0.667v0h15.433c0.368 0 0.667 0.298 0.667 0.667s-0.298 0.667-0.667 0.667v0z"></path>
<path fill="#919191" d="M13.283 12.889c0 0.736-0.597 1.333-1.333 1.333s-1.333-0.597-1.333-1.333c0-0.736 0.597-1.333 1.333-1.333s1.333 0.597 1.333 1.333z"></path>
<path fill="#919191" d="M15.824 19.111h4.625z"></path>
<path fill="#919191" d="M20.449 19.777h-4.625c-0.368 0-0.667-0.298-0.667-0.667s0.298-0.667 0.667-0.667v0h4.625c0.368 0 0.667 0.298 0.667 0.667s-0.298 0.667-0.667 0.667v0z"></path>
<path fill="#919191" d="M13.283 19.111c0 0.736-0.597 1.333-1.333 1.333s-1.333-0.597-1.333-1.333c0-0.736 0.597-1.333 1.333-1.333s1.333 0.597 1.333 1.333z"></path>
<path fill="#919191" d="M13.283 25.333c0 0.736-0.597 1.333-1.333 1.333s-1.333-0.597-1.333-1.333c0-0.736 0.597-1.333 1.333-1.333s1.333 0.597 1.333 1.333z"></path>
<path fill="#919191" d="M21.857 26h-6.033c-0.368 0-0.667-0.298-0.667-0.667s0.298-0.667 0.667-0.667v0h6.033c0.368 0 0.667 0.298 0.667 0.667s-0.298 0.667-0.667 0.667v0z"></path>
<path fill="#919191" d="M31.283 16.028h-9.333c-0.001 0-0.002 0-0.004 0-0.368 0-0.667 0.298-0.667 0.667 0 0.16 0.056 0.306 0.15 0.421l-0.001-0.001 3.855 4.124v4.761c0 0.368 0.298 0.667 0.667 0.667v0h1.333c0.368 0 0.667-0.298 0.667-0.667v0-4.763l3.852-4.124c0.092-0.113 0.148-0.26 0.148-0.419 0-0.368-0.298-0.667-0.667-0.667v0z"></path>
</svg>
