<!-- Generated by IcoMoon.io -->
<svg version="1.1" xmlns="http://www.w3.org/2000/svg" width="43" height="32" viewBox="0 0 43 32">
<title>save-button</title>
<path fill="#191919" stroke="#707070" stroke-linejoin="miter" stroke-linecap="butt" stroke-miterlimit="4" stroke-width="1.3333" d="M5.333 0h32c2.946 0 5.333 2.388 5.333 5.333v21.333c0 2.946-2.388 5.333-5.333 5.333h-32c-2.946 0-5.333-2.388-5.333-5.333v-21.333c0-2.946 2.388-5.333 5.333-5.333z"></path>
<path fill="none" stroke="#707070" stroke-linejoin="miter" stroke-linecap="butt" stroke-miterlimit="4" stroke-width="1.3333" d="M5.333 0.667h32c2.577 0 4.667 2.089 4.667 4.667v21.333c0 2.577-2.089 4.667-4.667 4.667h-32c-2.577 0-4.667-2.089-4.667-4.667v-21.333c0-2.577 2.089-4.667 4.667-4.667z"></path>
<path fill="#919191" d="M30.083 26.667h-17.512c-1.055-0.002-1.909-0.856-1.911-1.911v-17.512c0.002-1.055 0.856-1.909 1.911-1.911h15.637l3.785 4.533v14.892c-0.003 1.053-0.857 1.907-1.911 1.908h-0zM12.572 6.588c-0.362 0.001-0.655 0.294-0.656 0.656v17.511c0.001 0.362 0.294 0.655 0.656 0.656h17.511c0.362 0 0.656-0.294 0.656-0.656v0-14.436l-3.117-3.733z"></path>
<path fill="#919191" d="M26.521 13.187h-10.735v-7.853h10.735zM17.12 11.853h8.068v-5.187h-8.068z"></path>
<path fill="#919191" d="M27.799 26.667h-13.333v-7.544c-0.001-0.025-0.002-0.054-0.002-0.084 0-1.025 0.804-1.862 1.816-1.916l0.005-0h9.697c1.016 0.053 1.821 0.89 1.821 1.915 0 0.030-0.001 0.060-0.002 0.089l0-0.004zM15.677 25.333h10.909v-6.211c0-0.009 0.001-0.019 0.001-0.029 0-0.342-0.268-0.621-0.606-0.638l-0.002-0h-9.692c-0.339 0.017-0.607 0.296-0.607 0.638 0 0.010 0 0.020 0.001 0.030l-0-0.001z"></path>
<path fill="#919191" d="M21.601 7.485h2.305v3.353h-2.305v-3.353z"></path>
</svg>
