<!-- Generated by IcoMoon.io -->
<svg version="1.1" xmlns="http://www.w3.org/2000/svg" width="32" height="32" viewBox="0 0 32 32">
<title>save-flat</title>
<path fill="#919191" d="M29.134 32h-26.268c-1.582-0.002-2.864-1.284-2.866-2.866v-26.268c0.002-1.582 1.284-2.864 2.866-2.866h23.456l5.678 6.8v22.338c-0.005 1.58-1.285 2.86-2.866 2.862h-0zM2.868 1.882c-0.543 0.001-0.983 0.441-0.984 0.984v26.266c0.001 0.543 0.441 0.983 0.984 0.984h26.266c0.543 0 0.984-0.441 0.984-0.984v0-21.654l-4.676-5.6z"></path>
<path fill="#919191" d="M23.792 11.78h-16.102v-11.78h16.102zM9.69 9.78h12.102v-7.78h-12.102z"></path>
<path fill="#919191" d="M25.708 32h-20v-11.316c-0.002-0.038-0.003-0.082-0.003-0.126 0-1.538 1.206-2.794 2.724-2.874l0.007-0h14.546c1.525 0.079 2.731 1.335 2.731 2.872 0 0.045-0.001 0.090-0.003 0.134l0-0.006zM7.526 30h16.364v-9.316c0.001-0.013 0.001-0.028 0.001-0.043 0-0.513-0.402-0.931-0.909-0.957l-0.002-0h-14.538c-0.508 0.026-0.911 0.444-0.911 0.957 0 0.015 0 0.030 0.001 0.045l-0-0.002z"></path>
<path fill="#919191" d="M16.412 3.228h3.458v5.030h-3.458v-5.030z"></path>
</svg>
