<!-- Generated by IcoMoon.io -->
<svg version="1.1" xmlns="http://www.w3.org/2000/svg" width="26" height="32" viewBox="0 0 26 32">
<title>undo</title>
<path fill="#919191" d="M12.75 7.346l-6.928 0.022 5.326-5.068c0.255-0.238 0.414-0.577 0.414-0.952s-0.159-0.714-0.413-0.951l-0.001-0.001c-0.261-0.244-0.613-0.393-1-0.393s-0.739 0.15-1.001 0.394l0.001-0.001-9.146 8.702 8.904 8.472c0.261 0.244 0.613 0.393 1 0.393s0.739-0.15 1.001-0.394l-0.001 0.001c0.255-0.238 0.415-0.576 0.415-0.952s-0.159-0.714-0.414-0.951l-0.001-0.001-5.532-5.264 7.436-0.026c0.097-0.004 0.212-0.005 0.326-0.005 5.105 0 9.289 3.944 9.671 8.951l0.002 0.033c0 0.020 0 0.044 0 0.068 0 5.257-4.261 9.518-9.518 9.518-0.069 0-0.138-0.001-0.207-0.002l0.010 0-9.418 0.030c-0.021-0.001-0.046-0.002-0.072-0.002-0.838 0-1.518 0.68-1.518 1.518s0.68 1.518 1.518 1.518c0.029 0 0.059-0.001 0.088-0.003l-0.004 0 9.418-0.030c0.076 0.002 0.166 0.003 0.256 0.003 6.795 0 12.338-5.358 12.635-12.080l0.001-0.027c-0.18-6.956-5.861-12.526-12.844-12.526-0.143 0-0.285 0.002-0.427 0.007l0.021-0.001z"></path>
</svg>
