<!-- Generated by IcoMoon.io -->
<svg version="1.1" xmlns="http://www.w3.org/2000/svg" width="32" height="32" viewBox="0 0 32 32">
<title>up-down</title>
<path fill="#919191" d="M8.52 32c-0.681-0.038-1.22-0.6-1.22-1.288 0-0.023 0.001-0.045 0.002-0.067l-0 0.003v-26.65c-0.004-0.036-0.006-0.078-0.006-0.121 0-0.676 0.548-1.224 1.224-1.224s1.224 0.548 1.224 1.224c0 0.043-0.002 0.085-0.006 0.126l0-0.005v26.65c0.001 0.019 0.002 0.040 0.002 0.062 0 0.688-0.538 1.25-1.216 1.29l-0.003 0z"></path>
<path fill="#919191" d="M1.218 9.996c-0.673-0.001-1.219-0.547-1.219-1.22 0-0.337 0.136-0.641 0.357-0.862l7.6-7.6c0.194-0.194 0.462-0.314 0.758-0.314s0.564 0.12 0.758 0.314l7.544 7.548c0.208 0.218 0.336 0.514 0.336 0.84 0 0.673-0.545 1.218-1.218 1.218-0.326 0-0.622-0.128-0.84-0.336l-6.58-6.582-6.632 6.634c-0.218 0.222-0.521 0.36-0.857 0.36-0.002 0-0.005 0-0.007-0h0z"></path>
<path fill="#919191" d="M23.478 0c0.682 0.038 1.22 0.6 1.22 1.288 0 0.023-0.001 0.046-0.002 0.069l0-0.003v26.648c0.004 0.036 0.006 0.078 0.006 0.121 0 0.676-0.548 1.224-1.224 1.224s-1.224-0.548-1.224-1.224c0-0.043 0.002-0.085 0.006-0.126l-0 0.005v-26.648c-0.001-0.020-0.002-0.044-0.002-0.068 0-0.687 0.538-1.249 1.216-1.286l0.003-0z"></path>
<path fill="#919191" d="M30.78 22.012c0.672 0 1.218 0.546 1.218 1.218 0 0.337-0.137 0.642-0.357 0.862v0l-7.6 7.6c-0.194 0.194-0.461 0.314-0.757 0.314s-0.563-0.12-0.757-0.314l-7.546-7.548c-0.22-0.22-0.356-0.525-0.356-0.861 0-0.673 0.545-1.218 1.218-1.218 0.337 0 0.641 0.137 0.862 0.357l6.58 6.584 6.63-6.638c0.222-0.22 0.527-0.356 0.864-0.356 0.001 0 0.002 0 0.002 0h-0z"></path>
</svg>
