<!-- Generated by IcoMoon.io -->
<svg version="1.1" xmlns="http://www.w3.org/2000/svg" width="43" height="32" viewBox="0 0 43 32">
<title>z-arc</title>
<path fill="#191919" stroke="#707070" stroke-linejoin="miter" stroke-linecap="butt" stroke-miterlimit="4" stroke-width="1.3333" d="M5.333 0h32c2.946 0 5.333 2.388 5.333 5.333v21.333c0 2.946-2.388 5.333-5.333 5.333h-32c-2.946 0-5.333-2.388-5.333-5.333v-21.333c0-2.946 2.388-5.333 5.333-5.333z"></path>
<path fill="none" stroke="#707070" stroke-linejoin="miter" stroke-linecap="butt" stroke-miterlimit="4" stroke-width="1.3333" d="M5.333 0.667h32c2.577 0 4.667 2.089 4.667 4.667v21.333c0 2.577-2.089 4.667-4.667 4.667h-32c-2.577 0-4.667-2.089-4.667-4.667v-21.333c0-2.577 2.089-4.667 4.667-4.667z"></path>
<path fill="#919191" d="M16.691 7.537c-0.563 0.563-1.475 0.563-2.038 0s-0.563-1.475 0-2.038c0.563-0.563 1.475-0.563 2.038 0s0.563 1.475 0 2.038z"></path>
<path fill="#919191" d="M20.977 25.201l-6.317-0.094c-0.296-0.006-0.591-0.122-0.818-0.348-0.098-0.099-0.176-0.21-0.233-0.329l0.004 0.008c-0.192-0.393-0.15-0.862 0.124-1.209l0.003-0.004 6.278-7.779-4.787-0.073c-0.295-0.007-0.589-0.123-0.815-0.348s-0.342-0.52-0.348-0.816v0.001c-0.007-0.292 0.101-0.586 0.323-0.808s0.516-0.33 0.808-0.323l0.001 0 7.194 0.113c0.296 0.006 0.591 0.122 0.817 0.348 0.098 0.098 0.176 0.209 0.232 0.328l-0.004-0.008c0.193 0.392 0.15 0.862-0.124 1.209l-0.003 0.004-6.287 7.774 3.909 0.060c1.927 0.040 3.863-0.675 5.33-2.142s2.182-3.404 2.142-5.327l-0-0.003c-0.044-1.956-0.813-3.904-2.309-5.4s-3.443-2.266-5.404-2.31l0.004 0-1.283-0.025c-0.295-0.006-0.59-0.122-0.815-0.348s-0.342-0.52-0.348-0.816v0.001c-0.007-0.292 0.101-0.586 0.323-0.808s0.516-0.33 0.808-0.323l0.001 0 1.282 0.026c2.547 0.057 5.083 1.059 7.030 3.007s2.95 4.483 3.007 7.036l-0-0.005c0.053 2.51-0.877 5.032-2.789 6.944-1.91 1.91-4.429 2.84-6.932 2.789l-0.004-0z"></path>
</svg>
