<!-- Generated by IcoMoon.io -->
<svg version="1.1" xmlns="http://www.w3.org/2000/svg" width="32" height="32" viewBox="0 0 32 32">
<title>bell</title>
<path fill="#919191" d="M30.238 23.356c-2.492-1.906-4.087-4.876-4.102-8.22v-2.782c0-0.001 0-0.002 0-0.003 0-2.618-1.086-4.983-2.831-6.668l-0.003-0.003c-0.63-0.616-1.346-1.148-2.128-1.575l-0.050-0.025c-0.251-2.3-2.183-4.074-4.529-4.074-2.296 0-4.195 1.699-4.509 3.908l-0.003 0.024c-3.143 1.555-5.267 4.737-5.276 8.415v2.461c0 1.96-2.046 5.168-5.472 8.582-0.775 0.586-1.27 1.505-1.27 2.541 0 0.306 0.043 0.602 0.124 0.882l-0.006-0.022c0.69 1.642 2.632 1.674 4.2 1.698h5.036c1.497 2.134 3.945 3.512 6.716 3.512s5.219-1.378 6.699-3.485l0.017-0.026h4.938c1.444-0.022 3.502-0.054 4.088-1.776 0.574-1.684-1.036-2.902-1.64-3.362zM8.8 14.814v-2.46c0.030-3.367 2.263-6.203 5.327-7.14l0.053-0.014c-0.085-0.21-0.134-0.454-0.134-0.71 0-0.015 0-0.030 0.001-0.045l-0 0.002c0-1.406 1.14-2.546 2.546-2.546s2.546 1.14 2.546 2.546v0c-0 0.298-0.057 0.582-0.159 0.844l0.005-0.016c1.133 0.394 2.103 1.004 2.904 1.785l-0.002-0.001c1.383 1.342 2.243 3.217 2.248 5.293v2.781c0.005 2.582 0.812 4.975 2.186 6.944l-0.026-0.040h-21.054c1.852-1.913 3.13-4.391 3.551-7.151l0.009-0.073zM27.838 26.536h-6.158c-1.007 2.091-3.11 3.509-5.544 3.509s-4.537-1.418-5.528-3.472l-0.016-0.037h-6.182c-2.222-0.034-3.2-0.222-1.648-1.774 0.252-0.252 0.532-0.54 0.824-0.848h24.288c0.349 0.342 0.72 0.664 1.111 0.963l0.029 0.021c1.752 1.328 1.044 1.604-1.172 1.638z"></path>
</svg>
