<!-- Generated by IcoMoon.io -->
<svg version="1.1" xmlns="http://www.w3.org/2000/svg" width="32" height="32" viewBox="0 0 32 32">
<title>books</title>
<path fill="#919191" d="M12.161 1.276v29.231h-10.827v-29.231h10.827zM12.253 0h-11.003c-0.008-0-0.017-0-0.026-0-0.666 0-1.207 0.536-1.216 1.2v29.408c0.015 0.66 0.554 1.189 1.216 1.189 0.009 0 0.018-0 0.028-0l-0.001 0h11.003c0.008 0 0.017 0 0.026 0 0.662 0 1.2-0.529 1.216-1.187l0-0.001v-29.407c-0.009-0.665-0.55-1.201-1.216-1.201-0.009 0-0.018 0-0.027 0l0.001-0z"></path>
<path fill="#919191" d="M22.886 2.209v0zM22.796 2.233l7.852 25.838-9.46 2.635-7.852-25.842 9.46-2.633zM22.86 0.932c-0.001 0-0.002 0-0.003 0-0.123 0-0.242 0.018-0.354 0.050l0.009-0.002-9.636 2.681c-0.517 0.133-0.893 0.595-0.893 1.145 0 0.117 0.017 0.23 0.049 0.336l-0.002-0.008 7.902 26.006c0.165 0.501 0.628 0.856 1.175 0.856 0.009 0 0.018-0 0.027-0l-0.001 0c0.124-0 0.244-0.018 0.357-0.050l-0.009 0.002 9.636-2.683c0.517-0.133 0.892-0.595 0.892-1.145 0-0.116-0.017-0.228-0.048-0.334l0.002 0.008-7.902-26.006c-0.165-0.502-0.629-0.858-1.177-0.858-0.008 0-0.016 0-0.024 0l0.001-0z"></path>
<path fill="#919191" d="M6.75 4.015c1.105 0 2.001 0.896 2.001 2s-0.896 2.001-2.001 2.001c-1.105 0-2.001-0.896-2.001-2.001v0c0-1.105 0.896-2.001 2.001-2.001v0zM6.75 2.683c-1.841 0-3.333 1.492-3.333 3.333s1.492 3.333 3.333 3.333c1.841 0 3.333-1.492 3.333-3.333v0c0-1.841-1.492-3.333-3.333-3.333v0z"></path>
<path fill="#919191" d="M19.919 6.244c1.105 0 2 0.896 2 2s-0.896 2.001-2 2.001c-1.105 0-2-0.896-2-2.001v0c0-1.105 0.896-2.001 2-2.001v0zM19.919 4.909c-1.841 0-3.333 1.492-3.333 3.333s1.492 3.333 3.333 3.333c1.841 0 3.333-1.492 3.333-3.333v0c0-1.841-1.492-3.333-3.333-3.333v0z"></path>
<path fill="#919191" d="M8.75 12.771v15.584h-4.001v-15.584h4.001zM8.868 11.571h-4.237c-0.017-0.001-0.038-0.001-0.058-0.001-0.616 0-1.12 0.481-1.156 1.089l-0 0.003v15.804c0.036 0.609 0.539 1.090 1.154 1.090 0.021 0 0.042-0.001 0.063-0.002l-0.003 0h4.237c0.018 0.001 0.039 0.002 0.060 0.002 0.615 0 1.118-0.48 1.154-1.087l0-0.003v-15.804c-0.036-0.61-0.54-1.092-1.156-1.092-0.020 0-0.041 0.001-0.061 0.002l0.003-0z"></path>
<path fill="#919191" d="M23.684 14.756l3.347 11.177-3.839 1.122-3.349-11.183 3.841-1.116zM23.684 13.393c-0.093 0.001-0.182 0.019-0.263 0.052l0.005-0.002-4.069 1.182c-0.51 0.151-0.876 0.616-0.876 1.166 0 0.12 0.018 0.237 0.050 0.347l-0.002-0.009 3.413 11.403c0.152 0.51 0.616 0.876 1.166 0.876h0c0.121-0 0.238-0.019 0.349-0.052l-0.009 0.002 4.069-1.182c0.51-0.152 0.876-0.617 0.876-1.168 0-0.12-0.017-0.236-0.050-0.345l0.002 0.009-3.415-11.403c-0.151-0.51-0.616-0.876-1.166-0.876v0z"></path>
</svg>
