<!-- Generated by IcoMoon.io -->
<svg version="1.1" xmlns="http://www.w3.org/2000/svg" width="32" height="32" viewBox="0 0 32 32">
<title>check-x-box</title>
<path fill="none" stroke="#919191" stroke-linejoin="miter" stroke-linecap="butt" stroke-miterlimit="4" stroke-width="2" d="M6 0h20c3.314 0 6 2.686 6 6v20c0 3.314-2.686 6-6 6h-20c-3.314 0-6-2.686-6-6v-20c0-3.314 2.686-6 6-6z"></path>
<path fill="none" stroke="#919191" stroke-linejoin="miter" stroke-linecap="butt" stroke-miterlimit="4" stroke-width="2" d="M6 1h20c2.761 0 5 2.239 5 5v20c0 2.761-2.239 5-5 5h-20c-2.761 0-5-2.239-5-5v-20c0-2.761 2.239-5 5-5z"></path>
<path fill="#919191" d="M16.294 6.279l-0.974-1.011c-0.132-0.133-0.316-0.215-0.518-0.211s-0.383 0.091-0.51 0.229l-0 0-5.747 5.959-2.407-2.334c-0.132-0.133-0.316-0.215-0.518-0.211s-0.383 0.091-0.51 0.229l-0 0-0.935 0.966c-0.133 0.132-0.214 0.317-0.21 0.519s0.091 0.383 0.228 0.511l0 0 3.939 3.81c0.132 0.133 0.316 0.215 0.518 0.211s0.383-0.091 0.51-0.229l0-0 7.152-7.408c0.133-0.132 0.214-0.317 0.21-0.519s-0.091-0.383-0.228-0.511l-0-0z"></path>
<path fill="#919191" d="M17.438 19.358l1.761-1.761 7.862 7.862-1.761 1.761z"></path>
<path fill="#919191" d="M19.202 26.974l-1.754-1.754 7.457-7.457 1.754 1.754z"></path>
</svg>
