<!-- Generated by IcoMoon.io -->
<svg version="1.1" xmlns="http://www.w3.org/2000/svg" width="36" height="32" viewBox="0 0 36 32">
<title>close</title>
<path fill="none" stroke="#585858" stroke-linejoin="round" stroke-linecap="round" stroke-miterlimit="10" stroke-width="2.7334" d="M7.099 1.933l-5.74 5.74 5.74 5.74"></path>
<path fill="none" stroke="#585858" stroke-linejoin="miter" stroke-linecap="round" stroke-miterlimit="10" stroke-width="2.7334" d="M28.157 24.849c0.043 0.001 0.093 0.002 0.144 0.002 3.191 0 5.788-2.546 5.869-5.718l0-0.008v-5.74c-0.074-3.187-2.675-5.742-5.873-5.742-0.050 0-0.099 0.001-0.148 0.002l0.007-0h-24.054"></path>
<path fill="#585858" d="M12.967 18.333h8.2c1.51 0 2.733 1.224 2.733 2.733v8.2c0 1.51-1.224 2.733-2.733 2.733h-8.2c-1.51 0-2.733-1.224-2.733-2.733v-8.2c0-1.51 1.224-2.733 2.733-2.733z"></path>
</svg>
