<!-- Generated by IcoMoon.io -->
<svg version="1.1" xmlns="http://www.w3.org/2000/svg" width="43" height="32" viewBox="0 0 43 32">
<title>cloud</title>
<path fill="#191919" stroke="#707070" stroke-linejoin="miter" stroke-linecap="butt" stroke-miterlimit="4" stroke-width="1.3333" d="M5.333 0h32c2.946 0 5.333 2.388 5.333 5.333v21.333c0 2.946-2.388 5.333-5.333 5.333h-32c-2.946 0-5.333-2.388-5.333-5.333v-21.333c0-2.946 2.388-5.333 5.333-5.333z"></path>
<path fill="none" stroke="#707070" stroke-linejoin="miter" stroke-linecap="butt" stroke-miterlimit="4" stroke-width="1.3333" d="M5.333 0.667h32c2.577 0 4.667 2.089 4.667 4.667v21.333c0 2.577-2.089 4.667-4.667 4.667h-32c-2.577 0-4.667-2.089-4.667-4.667v-21.333c0-2.577 2.089-4.667 4.667-4.667z"></path>
<path fill="#919191" d="M30.828 22.673h-4.765v1.333h-8.064v-1.333h-4.764v-5.32h3.043v-2.013h2.235v-0.639h2.081v-1.361h2.876v1.357h2.081v0.643h2.235v2.016h3.043z"></path>
<path fill="none" stroke="#919191" stroke-linejoin="miter" stroke-linecap="butt" stroke-miterlimit="4" stroke-width="1.3333" d="M10.821 5.333v21.333h21.333"></path>
<path fill="#919191" d="M14.667 9.333h2.667v2.667h-2.667v-2.667z"></path>
<path fill="#919191" d="M26.667 10.667h2.667v2.667h-2.667v-2.667z"></path>
<path fill="#919191" d="M20 6.667h2.667v2.667h-2.667v-2.667z"></path>
<path fill="#919191" d="M25.333 5.333h2.667v2.667h-2.667v-2.667z"></path>
</svg>
