<!-- Generated by IcoMoon.io -->
<svg version="1.1" xmlns="http://www.w3.org/2000/svg" width="24" height="32" viewBox="0 0 24 32">
<title>document</title>
<path fill="#919191" d="M23.957 9.171v0l-9.167-9.169-0.012 0.012h-13.839c-0.516 0.001-0.934 0.419-0.936 0.936v30.117c0.001 0.516 0.419 0.934 0.936 0.936h22.116c0.516-0.001 0.934-0.419 0.936-0.936v-21.862zM15 3.037l5.978 5.978h-5.044c-0.518 0-0.938-0.42-0.938-0.938v0zM21.998 30.001h-19.992v-27.989h10.996v6.066c0.002 1.621 1.316 2.935 2.937 2.937h6.054z"></path>
<path fill="#919191" d="M4.598 13.681h15.014v1.999h-15.014v-1.999z"></path>
<path fill="#919191" d="M4.598 17.679h15.014v1.999h-15.014v-1.999z"></path>
<path fill="#919191" d="M4.598 21.678h15.014v1.999h-15.014v-1.999z"></path>
<path fill="#919191" d="M4.598 25.676h15.014v1.999h-15.014v-1.999z"></path>
</svg>
