<!-- Generated by IcoMoon.io -->
<svg version="1.1" xmlns="http://www.w3.org/2000/svg" width="43" height="32" viewBox="0 0 43 32">
<title>eye</title>
<path fill="#191919" stroke="#707070" stroke-linejoin="miter" stroke-linecap="butt" stroke-miterlimit="4" stroke-width="1.3333" d="M5.333 0h32c2.946 0 5.333 2.388 5.333 5.333v21.333c0 2.946-2.388 5.333-5.333 5.333h-32c-2.946 0-5.333-2.388-5.333-5.333v-21.333c0-2.946 2.388-5.333 5.333-5.333z"></path>
<path fill="none" stroke="#707070" stroke-linejoin="miter" stroke-linecap="butt" stroke-miterlimit="4" stroke-width="1.3333" d="M5.333 0.667h32c2.577 0 4.667 2.089 4.667 4.667v21.333c0 2.577-2.089 4.667-4.667 4.667h-32c-2.577 0-4.667-2.089-4.667-4.667v-21.333c0-2.577 2.089-4.667 4.667-4.667z"></path>
<path fill="#919191" d="M22.472 22.124c-3.175-0.083-5.718-2.677-5.718-5.865 0-0.048 0.001-0.095 0.002-0.142l-0 0.007c-0.001-0.040-0.002-0.088-0.002-0.135 0-3.188 2.542-5.782 5.71-5.865l0.008-0c3.175 0.083 5.718 2.677 5.718 5.865 0 0.048-0.001 0.095-0.002 0.142l0-0.007c0.001 0.040 0.002 0.088 0.002 0.135 0 3.188-2.542 5.782-5.71 5.865l-0.008 0zM22.472 10.973c-2.724 0.070-4.905 2.295-4.905 5.029 0 0.043 0.001 0.085 0.002 0.128l-0-0.006c-0.001 0.035-0.001 0.077-0.001 0.119 0 2.734 2.181 4.959 4.899 5.029l0.006 0c2.724-0.070 4.905-2.295 4.905-5.029 0-0.042-0-0.084-0.002-0.125l0 0.006c0.001-0.033 0.001-0.072 0.001-0.111 0-2.736-2.18-4.963-4.898-5.038l-0.007-0z"></path>
<path fill="#919191" d="M22.623 16.191l1.568-3.253c-0.502-0.324-1.116-0.517-1.775-0.517-1.283 0-2.396 0.731-2.943 1.8l-0.009 0.019c-0.309 0.547-0.491 1.201-0.491 1.897 0 1.33 0.664 2.504 1.678 3.211l0.013 0.008c0.503 0.325 1.118 0.519 1.778 0.519 1.282 0 2.394-0.73 2.943-1.797l0.009-0.019c0.305-0.551 0.484-1.209 0.484-1.908 0-0.582-0.124-1.135-0.348-1.634l0.010 0.025z"></path>
<path fill="#919191" d="M32.977 15.643c-0.212-0.233-5.2-5.505-10.501-5.505s-10.461 5.455-10.675 5.687c-0.070 0.082-0.125 0.181-0.156 0.289l-0.001 0.006c0.030 0.115 0.083 0.216 0.153 0.301l-0.001-0.001c0.223 0.233 5.364 5.675 10.657 5.693v-0.851c-4.276-0.016-8.633-3.997-9.792-5.136 1.16-1.141 5.531-5.137 9.819-5.137s8.656 4 9.819 5.137z"></path>
</svg>
