<!-- Generated by IcoMoon.io -->
<svg version="1.1" xmlns="http://www.w3.org/2000/svg" width="32" height="32" viewBox="0 0 32 32">
<title>filter</title>
<path fill="#919191" d="M19.652 32v0c-0.565-0.026-1.013-0.49-1.013-1.059 0-0.016 0-0.032 0.001-0.047l-0 0.002v-17.026c-0-0.004-0-0.009-0-0.015 0-0.587 0.222-1.123 0.586-1.527l-0.002 0.002 9.278-10.124h-25l9.784 10.676c0.362 0.402 0.584 0.936 0.584 1.522 0 0.005-0 0.011-0 0.017v-0.001 9.4l2.754 3c0.183 0.207 0.295 0.481 0.295 0.781s-0.112 0.574-0.297 0.782l0.001-0.001c-0.175 0.199-0.431 0.323-0.715 0.323s-0.54-0.125-0.714-0.322l-0.001-0.001-3.056-3.336c-0.179-0.199-0.288-0.464-0.288-0.754 0-0.003 0-0.005 0-0.008v0-9.114c0-0.004 0-0.008 0-0.013 0-0.48-0.181-0.918-0.48-1.249l0.001 0.002-11.074-12.084c-0.184-0.194-0.297-0.457-0.297-0.746 0-0.566 0.433-1.031 0.987-1.082l0.004-0h30.032c0.557 0.050 0.991 0.516 0.991 1.082 0 0.289-0.113 0.552-0.297 0.747l0-0-10.568 11.532c-0.297 0.329-0.478 0.767-0.478 1.247 0 0.004 0 0.008 0 0.011v-0.001 16.276c0.001 0.015 0.001 0.032 0.001 0.049 0 0.572-0.453 1.038-1.019 1.059l-0.002 0z"></path>
</svg>
