<!-- Generated by IcoMoon.io -->
<svg version="1.1" xmlns="http://www.w3.org/2000/svg" width="43" height="32" viewBox="0 0 43 32">
<title>mirror</title>
<path fill="#191919" stroke="#707070" stroke-linejoin="miter" stroke-linecap="butt" stroke-miterlimit="4" stroke-width="1.3333" d="M5.333 0h32c2.946 0 5.333 2.388 5.333 5.333v21.333c0 2.946-2.388 5.333-5.333 5.333h-32c-2.946 0-5.333-2.388-5.333-5.333v-21.333c0-2.946 2.388-5.333 5.333-5.333z"></path>
<path fill="none" stroke="#707070" stroke-linejoin="miter" stroke-linecap="butt" stroke-miterlimit="4" stroke-width="1.3333" d="M5.333 0.667h32c2.577 0 4.667 2.089 4.667 4.667v21.333c0 2.577-2.089 4.667-4.667 4.667h-32c-2.577 0-4.667-2.089-4.667-4.667v-21.333c0-2.577 2.089-4.667 4.667-4.667z"></path>
<path fill="#919191" d="M13.667 23.667v-16h2.897v1.333h0.724v1.333h0.724v2.667h0.721v1.333h0.724v2.667h-0.724v1.333h-0.721v2.667h-0.724v1.333h-0.724v1.333z"></path>
<path fill="#919191" d="M31 7.667v16h-3.007v-1.333h-0.751v-1.333h-0.752v-2.667h-0.751v-1.333h-0.752v-2.667h0.751v-1.333h0.752v-2.667h0.752v-1.333h0.751v-1.333z"></path>
<path fill="none" stroke="#919191" stroke-linejoin="miter" stroke-linecap="butt" stroke-miterlimit="4" stroke-width="1.3333" d="M10.821 5.333v21.333h21.333"></path>
</svg>
