<!-- Generated by IcoMoon.io -->
<svg version="1.1" xmlns="http://www.w3.org/2000/svg" width="47" height="32" viewBox="0 0 47 32">
<title>nih</title>
<path fill="#c2c2c2" d="M36.588 31.892c1.246-0.204 2.294-0.919 2.94-1.918l0.010-0.017 0.291-0.611 6.729-13.341-6.743-13.344-0.291-0.611c-0.656-1.016-1.704-1.73-2.925-1.931l-0.025-0.003c-0.346-0.077-0.744-0.121-1.152-0.121s-0.806 0.044-1.189 0.128l0.037-0.007h-0.079l7.93 15.788-7.93 15.785h0.093c0.411 0.21 0.897 0.333 1.411 0.333 0.318 0 0.626-0.047 0.916-0.135l-0.022 0.006z"></path>
<path fill="#c2c2c2" d="M31.916 0h-29.364c-1.426 0.073-2.554 1.247-2.554 2.685 0 0.044 0.001 0.088 0.003 0.132l-0-0.006v26.377c-0.002 0.037-0.003 0.081-0.003 0.125 0 1.437 1.128 2.611 2.548 2.684l0.006 0h29.364l8.032-15.971zM15.043 22.429h-2.124l-5.591-9.51c-0.157-0.22-0.271-0.482-0.324-0.765l-0.002-0.012h-0.055c0.040 0.397 0.063 0.859 0.063 1.326 0 0.165-0.003 0.329-0.009 0.493l0.001-0.024v8.492h-1.9v-12.919h2.281l5.417 9.271c0.218 0.358 0.381 0.657 0.433 0.777h0.055c-0.069-0.474-0.109-1.021-0.109-1.578 0-0.059 0-0.118 0.001-0.176l-0 0.009v-8.303h1.9v12.919zM19.988 22.429h-2.007v-12.919h2.007zM30.356 22.429v-5.62h-5.527v5.62h-1.978v-12.919h1.955v5.443h5.527v-5.443h1.958v12.98h-1.949z"></path>
</svg>
