<!-- Generated by IcoMoon.io -->
<svg version="1.1" xmlns="http://www.w3.org/2000/svg" width="43" height="32" viewBox="0 0 43 32">
<title>polygon-tool</title>
<path fill="#191919" stroke="#707070" stroke-linejoin="miter" stroke-linecap="butt" stroke-miterlimit="4" stroke-width="1.3333" d="M5.333 0h32c2.946 0 5.333 2.388 5.333 5.333v21.333c0 2.946-2.388 5.333-5.333 5.333h-32c-2.946 0-5.333-2.388-5.333-5.333v-21.333c0-2.946 2.388-5.333 5.333-5.333z"></path>
<path fill="none" stroke="#707070" stroke-linejoin="miter" stroke-linecap="butt" stroke-miterlimit="4" stroke-width="1.3333" d="M5.333 0.667h32c2.577 0 4.667 2.089 4.667 4.667v21.333c0 2.577-2.089 4.667-4.667 4.667h-32c-2.577 0-4.667-2.089-4.667-4.667v-21.333c0-2.577 2.089-4.667 4.667-4.667z"></path>
<path fill="none" stroke="#9f9f9f" stroke-linejoin="round" stroke-linecap="butt" stroke-miterlimit="4" stroke-width="1.3333" d="M27.32 22.66l-5.837-1.133-3.124 4.839-6.372-8.189 4.999-11.505 6.224 8.513 8.444-5.941v7.843l-5.168 5.412"></path>
<path fill="#9f9f9f" d="M27.104 19.451c1.473 0 2.667 1.194 2.667 2.667s-1.194 2.667-2.667 2.667c-1.473 0-2.667-1.194-2.667-2.667v0c0-1.473 1.194-2.667 2.667-2.667v0z"></path>
</svg>
