<!-- Generated by IcoMoon.io -->
<svg version="1.1" xmlns="http://www.w3.org/2000/svg" width="43" height="32" viewBox="0 0 43 32">
<title>radio</title>
<path fill="#191919" stroke="#707070" stroke-linejoin="miter" stroke-linecap="butt" stroke-miterlimit="4" stroke-width="1.3333" d="M5.333 0h32c2.946 0 5.333 2.388 5.333 5.333v21.333c0 2.946-2.388 5.333-5.333 5.333h-32c-2.946 0-5.333-2.388-5.333-5.333v-21.333c0-2.946 2.388-5.333 5.333-5.333z"></path>
<path fill="none" stroke="#707070" stroke-linejoin="miter" stroke-linecap="butt" stroke-miterlimit="4" stroke-width="1.3333" d="M5.333 0.667h32c2.577 0 4.667 2.089 4.667 4.667v21.333c0 2.577-2.089 4.667-4.667 4.667h-32c-2.577 0-4.667-2.089-4.667-4.667v-21.333c0-2.577 2.089-4.667 4.667-4.667z"></path>
<path fill="#919191" d="M21.685 23.2c-0.003 0-0.007 0-0.011 0-3.082 0-5.581-2.499-5.581-5.581 0-1.816 0.867-3.429 2.21-4.449l0.014-0.010c0.924-0.704 2.095-1.128 3.365-1.128 3.084 0 5.584 2.5 5.584 5.584s-2.498 5.582-5.581 5.584h-0zM19.12 14.225c-1.033 0.784-1.693 2.012-1.693 3.395 0 2.348 1.903 4.251 4.251 4.251s4.251-1.903 4.251-4.251c0-0.965-0.322-1.856-0.864-2.569l0.008 0.011c-0.784-1.032-2.012-1.691-3.394-1.691-0.965 0-1.855 0.321-2.568 0.863l0.011-0.008z"></path>
<path fill="#919191" d="M23.912 17.615c0 1.234-1 2.235-2.235 2.235s-2.235-1-2.235-2.235c0-1.234 1-2.235 2.235-2.235s2.235 1 2.235 2.235z"></path>
<path fill="#919191" d="M31.487 10.223c-0.411-0.546-1.057-0.895-1.785-0.895-1.23 0-2.228 0.998-2.228 2.228 0 0.271 0.048 0.53 0.137 0.77l-0.005-0.015-2.149 1.619 0.8 1.067 2.149-1.619c0.362 0.265 0.816 0.423 1.307 0.423 1.23 0 2.228-0.998 2.228-2.228 0-0.509-0.171-0.979-0.458-1.354l0.004 0.005z"></path>
<path fill="#919191" d="M14.736 10.267c-0.412-0.545-1.059-0.893-1.787-0.893-1.234 0-2.235 1.001-2.235 2.235s1.001 2.235 2.235 2.235c0.497 0 0.956-0.162 1.328-0.437l-0.006 0.004 2.893 2.133 0.789-1.073-2.889-2.125c0.078-0.218 0.123-0.47 0.123-0.732 0-0.508-0.17-0.977-0.455-1.352l0.004 0.005z"></path>
</svg>
