<!-- Generated by IcoMoon.io -->
<svg version="1.1" xmlns="http://www.w3.org/2000/svg" width="43" height="32" viewBox="0 0 43 32">
<title>rect-tool</title>
<path fill="#191919" stroke="#707070" stroke-linejoin="miter" stroke-linecap="butt" stroke-miterlimit="4" stroke-width="1.3333" d="M5.333 0h32c2.946 0 5.333 2.388 5.333 5.333v21.333c0 2.946-2.388 5.333-5.333 5.333h-32c-2.946 0-5.333-2.388-5.333-5.333v-21.333c0-2.946 2.388-5.333 5.333-5.333z"></path>
<path fill="none" stroke="#707070" stroke-linejoin="miter" stroke-linecap="butt" stroke-miterlimit="4" stroke-width="1.3333" d="M5.333 0.667h32c2.577 0 4.667 2.089 4.667 4.667v21.333c0 2.577-2.089 4.667-4.667 4.667h-32c-2.577 0-4.667-2.089-4.667-4.667v-21.333c0-2.577 2.089-4.667 4.667-4.667z"></path>
<path fill="#919191" d="M32.657 5.333h-4v1.333h4v-1.333zM27.324 5.333h-4v1.333h4v-1.333zM21.991 5.333h-4v1.333h4v-1.333zM16.657 5.333h-5.333v4h1.333v-2.667h4v-1.333zM12.657 10.667h-1.333v4h1.333v-4zM12.657 16h-1.333v4h1.333v-4zM12.657 21.333h-1.333v5.333h4v-1.333h-2.667v-4zM20.657 25.333h-4v1.333h4v-1.333zM25.991 25.333h-4v1.333h4v-1.333zM31.324 25.333h-4v1.333h4v-1.333zM31.324 22.667v4h1.333v-4h-1.333zM32.657 17.333h-1.333v4h1.333v-4zM32.657 12h-1.333v4h1.333v-4zM32.657 6.667h-1.333v4h1.333v-4z"></path>
</svg>
