<!-- Generated by IcoMoon.io -->
<svg version="1.1" xmlns="http://www.w3.org/2000/svg" width="32" height="32" viewBox="0 0 32 32">
<title>search-big</title>
<path fill="#919191" d="M13.533 25.066c2.676 0 5.283-0.937 7.341-2.638l0.851-0.704 0.703-0.851c1.701-2.058 2.637-4.665 2.637-7.34 0-6.359-5.174-11.533-11.533-11.533s-11.533 5.174-11.533 11.533c0 6.359 5.174 11.533 11.533 11.533zM30.713 32.001c-0.33 0-0.66-0.126-0.912-0.378l-7.652-7.652c-2.34 1.934-5.342 3.096-8.615 3.096-7.474 0-13.533-6.059-13.533-13.533s6.059-13.533 13.533-13.533c7.474 0 13.533 6.059 13.533 13.533 0 3.273-1.162 6.274-3.095 8.614l7.653 7.653c0.504 0.502 0.504 1.319 0 1.822-0.252 0.252-0.582 0.378-0.912 0.378z"></path>
</svg>
