<!-- Generated by IcoMoon.io -->
<svg version="1.1" xmlns="http://www.w3.org/2000/svg" width="34" height="32" viewBox="0 0 34 32">
<title>search</title>
<path fill="#919191" d="M22.549 19.716c1.188 0 2.343-0.315 3.339-0.912l0.567-0.34 0.478-0.446c1.186-1.107 1.839-2.58 1.839-4.149 0-3.223-2.791-5.844-6.223-5.844-3.432 0-6.224 2.622-6.224 5.844 0 3.224 2.792 5.846 6.224 5.846zM33.246 26.263c-0.227 0-0.454-0.083-0.627-0.249l-5.635-5.38c-1.285 0.77-2.806 1.216-4.435 1.216-4.616 0-8.358-3.573-8.358-7.98 0-4.404 3.742-7.978 8.358-7.978s8.356 3.573 8.356 7.978c0 2.237-0.964 4.259-2.517 5.709l5.486 5.237c0.348 0.332 0.348 0.868 0 1.198-0.173 0.166-0.4 0.249-0.627 0.249z"></path>
</svg>
