<!-- Generated by IcoMoon.io -->
<svg version="1.1" xmlns="http://www.w3.org/2000/svg" width="43" height="32" viewBox="0 0 43 32">
<title>search-button</title>
<path fill="#191919" stroke="#707070" stroke-linejoin="miter" stroke-linecap="butt" stroke-miterlimit="4" stroke-width="1.3333" d="M5.333 0h32c2.946 0 5.333 2.388 5.333 5.333v21.333c0 2.946-2.388 5.333-5.333 5.333h-32c-2.946 0-5.333-2.388-5.333-5.333v-21.333c0-2.946 2.388-5.333 5.333-5.333z"></path>
<path fill="none" stroke="#707070" stroke-linejoin="miter" stroke-linecap="butt" stroke-miterlimit="4" stroke-width="1.3333" d="M5.333 0.667h32c2.577 0 4.667 2.089 4.667 4.667v21.333c0 2.577-2.089 4.667-4.667 4.667h-32c-2.577 0-4.667-2.089-4.667-4.667v-21.333c0-2.577 2.089-4.667 4.667-4.667z"></path>
<path fill="#919191" d="M15.289 14.355c0 1.784 0.624 3.522 1.758 4.894l0.469 0.567 0.568 0.469c1.372 1.134 3.11 1.758 4.893 1.758 4.239 0 7.688-3.449 7.688-7.688s-3.449-7.688-7.688-7.688c-4.239 0-7.688 3.449-7.688 7.688zM10.666 25.807c0-0.22 0.084-0.44 0.252-0.608l5.101-5.101c-1.289-1.56-2.064-3.561-2.064-5.743 0-4.982 4.039-9.022 9.022-9.022s9.022 4.039 9.022 9.022c0 4.982-4.039 9.022-9.022 9.022-2.182 0-4.183-0.775-5.743-2.063l-5.102 5.102c-0.335 0.336-0.88 0.336-1.214 0-0.168-0.168-0.252-0.388-0.252-0.608z"></path>
</svg>
