<!-- Generated by IcoMoon.io -->
<svg version="1.1" xmlns="http://www.w3.org/2000/svg" width="32" height="32" viewBox="0 0 32 32">
<title>settings-cog</title>
<path fill="none" stroke="#919191" stroke-linejoin="miter" stroke-linecap="butt" stroke-miterlimit="10" stroke-width="2" d="M21.31 16c0 2.933-2.377 5.31-5.31 5.31s-5.31-2.377-5.31-5.31c0-2.933 2.377-5.31 5.31-5.31s5.31 2.377 5.31 5.31z"></path>
<path fill="#919191" d="M17.244 30c0.011 0 0.019-0.009 0.020-0.017l0.489-4.058 1.234-0.386c0.586-0.183 1.142-0.411 1.653-0.678l1.144-0.597 3.209 2.518c0.003 0.003 0.005 0.004 0.011 0.004 0.009 0 0.012-0.003 0.015-0.006l1.76-1.76c0.007-0.007 0.008-0.019 0.001-0.027l-2.517-3.208 0.597-1.144c0.267-0.511 0.495-1.068 0.678-1.654l0.386-1.234 4.058-0.489c0.008-0.001 0.017-0.010 0.017-0.020v-2.488c0-0.011-0.009-0.019-0.017-0.020l-4.064-0.489-0.384-1.239c-0.18-0.581-0.407-1.135-0.675-1.648l-0.597-1.144 2.518-3.209c0.005-0.006 0.006-0.018-0.002-0.026l-1.758-1.758c-0.003-0.003-0.008-0.008-0.017-0.008-0.005 0-0.007 0.001-0.012 0.005l-3.208 2.517-1.144-0.597c-0.513-0.268-1.068-0.495-1.648-0.675l-1.239-0.384-0.489-4.064c-0.001-0.008-0.009-0.017-0.020-0.017h-2.488c-0.011 0-0.019 0.009-0.020 0.017l-0.489 4.058-1.234 0.386c-0.586 0.183-1.142 0.411-1.653 0.678l-1.144 0.597-3.209-2.518c-0.003-0.003-0.005-0.004-0.011-0.004-0.009 0-0.012 0.003-0.015 0.006l-1.76 1.76c-0.007 0.007-0.008 0.019-0.001 0.027l2.517 3.208-0.597 1.144c-0.267 0.511-0.495 1.068-0.678 1.654l-0.386 1.234-4.058 0.489c-0.008 0.001-0.017 0.010-0.017 0.020v2.488c0 0.011 0.009 0.019 0.017 0.020l4.064 0.489 0.384 1.239c0.18 0.581 0.407 1.135 0.675 1.648l0.597 1.144-2.518 3.209c-0.005 0.006-0.006 0.018 0.002 0.026l1.758 1.758c0.003 0.003 0.008 0.008 0.017 0.008 0.005 0 0.007-0.001 0.012-0.005l3.208-2.517 1.144 0.597c0.513 0.268 1.068 0.495 1.648 0.675l1.239 0.384 0.489 4.064c0.001 0.008 0.009 0.017 0.020 0.017h2.488zM17.244 32h-2.488c-1.022 0-1.884-0.764-2.006-1.778l-0.334-2.776c-0.678-0.21-1.342-0.478-1.982-0.812l-2.192 1.72c-0.368 0.289-0.808 0.431-1.246 0.431-0.52 0-1.037-0.2-1.43-0.591l-1.76-1.76c-0.722-0.724-0.792-1.872-0.16-2.676l1.72-2.192c-0.334-0.64-0.602-1.304-0.812-1.982l-2.776-0.334c-1.014-0.122-1.778-0.984-1.778-2.006v-2.488c0-1.022 0.764-1.884 1.778-2.006l2.774-0.334c0.212-0.678 0.48-1.342 0.814-1.982l-1.72-2.192c-0.632-0.804-0.562-1.954 0.16-2.676l1.76-1.76c0.392-0.392 0.909-0.591 1.429-0.591 0.439 0 0.879 0.142 1.247 0.431l2.192 1.72c0.64-0.334 1.304-0.602 1.982-0.814l0.334-2.774c0.122-1.014 0.984-1.778 2.006-1.778h2.488c1.022 0 1.884 0.764 2.006 1.778l0.334 2.776c0.678 0.21 1.342 0.478 1.982 0.812l2.192-1.72c0.368-0.289 0.808-0.431 1.246-0.431 0.52 0 1.037 0.2 1.43 0.591l1.76 1.76c0.722 0.724 0.792 1.872 0.16 2.676l-1.72 2.192c0.334 0.64 0.602 1.304 0.812 1.982l2.776 0.334c1.014 0.122 1.778 0.984 1.778 2.006v2.488c0 1.022-0.764 1.884-1.778 2.006l-2.774 0.334c-0.212 0.678-0.48 1.342-0.814 1.982l1.72 2.192c0.632 0.804 0.562 1.954-0.16 2.676l-1.76 1.76c-0.392 0.392-0.909 0.591-1.429 0.591-0.439 0-0.879-0.142-1.247-0.431l-2.192-1.72c-0.64 0.334-1.304 0.602-1.982 0.814l-0.334 2.774c-0.122 1.014-0.984 1.778-2.006 1.778z"></path>
</svg>
