<!-- Generated by IcoMoon.io -->
<svg version="1.1" xmlns="http://www.w3.org/2000/svg" width="43" height="32" viewBox="0 0 43 32">
<title>sub-group</title>
<path fill="#191919" stroke="#707070" stroke-linejoin="miter" stroke-linecap="butt" stroke-miterlimit="4" stroke-width="1.3333" d="M5.333 0h32c2.946 0 5.333 2.388 5.333 5.333v21.333c0 2.946-2.388 5.333-5.333 5.333h-32c-2.946 0-5.333-2.388-5.333-5.333v-21.333c0-2.946 2.388-5.333 5.333-5.333z"></path>
<path fill="none" stroke="#707070" stroke-linejoin="miter" stroke-linecap="butt" stroke-miterlimit="4" stroke-width="1.3333" d="M5.333 0.667h32c2.577 0 4.667 2.089 4.667 4.667v21.333c0 2.577-2.089 4.667-4.667 4.667h-32c-2.577 0-4.667-2.089-4.667-4.667v-21.333c0-2.577 2.089-4.667 4.667-4.667z"></path>
<path fill="none" stroke="#919191" stroke-linejoin="miter" stroke-linecap="butt" stroke-miterlimit="10" stroke-width="1.3333" d="M30.097 21.333h2.667c0.736 0 1.333 0.597 1.333 1.333v2.667c0 0.736-0.597 1.333-1.333 1.333h-2.667c-0.736 0-1.333-0.597-1.333-1.333v-2.667c0-0.736 0.597-1.333 1.333-1.333z"></path>
<path fill="none" stroke="#919191" stroke-linejoin="miter" stroke-linecap="butt" stroke-miterlimit="10" stroke-width="1.3333" d="M30.097 22h2.667c0.368 0 0.667 0.298 0.667 0.667v2.667c0 0.368-0.298 0.667-0.667 0.667h-2.667c-0.368 0-0.667-0.298-0.667-0.667v-2.667c0-0.368 0.298-0.667 0.667-0.667z"></path>
<path fill="none" stroke="#919191" stroke-linejoin="miter" stroke-linecap="butt" stroke-miterlimit="10" stroke-width="1.3333" d="M24.764 16h2.667c0.736 0 1.333 0.597 1.333 1.333v2.667c0 0.736-0.597 1.333-1.333 1.333h-2.667c-0.736 0-1.333-0.597-1.333-1.333v-2.667c0-0.736 0.597-1.333 1.333-1.333z"></path>
<path fill="none" stroke="#919191" stroke-linejoin="miter" stroke-linecap="butt" stroke-miterlimit="10" stroke-width="1.3333" d="M24.764 16.667h2.667c0.368 0 0.667 0.298 0.667 0.667v2.667c0 0.368-0.298 0.667-0.667 0.667h-2.667c-0.368 0-0.667-0.298-0.667-0.667v-2.667c0-0.368 0.298-0.667 0.667-0.667z"></path>
<path fill="none" stroke="#919191" stroke-linejoin="miter" stroke-linecap="butt" stroke-miterlimit="10" stroke-width="1.3333" d="M14.097 5.333h8c0.736 0 1.333 0.597 1.333 1.333v8c0 0.736-0.597 1.333-1.333 1.333h-8c-0.736 0-1.333-0.597-1.333-1.333v-8c0-0.736 0.597-1.333 1.333-1.333z"></path>
<path fill="none" stroke="#919191" stroke-linejoin="miter" stroke-linecap="butt" stroke-miterlimit="10" stroke-width="1.3333" d="M14.097 6h8c0.368 0 0.667 0.298 0.667 0.667v8c0 0.368-0.298 0.667-0.667 0.667h-8c-0.368 0-0.667-0.298-0.667-0.667v-8c0-0.368 0.298-0.667 0.667-0.667z"></path>
<path fill="#919191" d="M29.487 24.667h-11.389c-0.368 0-0.667-0.298-0.667-0.667v0-8.889h1.333v8.223h10.723z"></path>
<path fill="#919191" d="M18.097 18h6.277v1.333h-6.277v-1.333z"></path>
</svg>
