<!-- Generated by IcoMoon.io -->
<svg version="1.1" xmlns="http://www.w3.org/2000/svg" width="32" height="32" viewBox="0 0 32 32">
<title>user-circle</title>
<path fill="none" stroke="#919191" stroke-linejoin="miter" stroke-linecap="butt" stroke-miterlimit="4" stroke-width="1.3333" d="M32 16c0 8.837-7.163 16-16 16s-16-7.163-16-16c0-8.837 7.163-16 16-16s16 7.163 16 16z"></path>
<path fill="none" stroke="#919191" stroke-linejoin="miter" stroke-linecap="butt" stroke-miterlimit="4" stroke-width="1.3333" d="M31.333 16c0 8.468-6.865 15.333-15.333 15.333s-15.333-6.865-15.333-15.333c0-8.468 6.865-15.333 15.333-15.333s15.333 6.865 15.333 15.333z"></path>
<path fill="#919191" d="M7.425 24.756v-2.333c0-2.567 3.92-4.667 8.711-4.667s8.711 2.1 8.711 4.667v2.333zM11.78 10.756c-0.002-0.045-0.002-0.097-0.002-0.15 0-2.44 1.933-4.428 4.35-4.517l0.008-0c2.426 0.089 4.358 2.078 4.358 4.517 0 0.053-0.001 0.105-0.003 0.157l0-0.008c0.002 0.045 0.003 0.098 0.003 0.151 0 2.439-1.933 4.427-4.35 4.516l-0.008 0c-2.426-0.089-4.359-2.077-4.359-4.516 0-0.053 0.001-0.106 0.003-0.158l-0 0.008z"></path>
</svg>
